<svg xmlns="http://www.w3.org/2000/svg" viewBox="0 0 300 56" role="img" aria-label="INDIGO">
  <title>INDIGO — для тёмного фона</title>
  <rect x="0" y="12" width="22" height="36" rx="3" fill="#1c3048"/>
  <rect x="8" y="6" width="22" height="36" rx="3" fill="#3d6a94"/>
  <path fill="#e8eef5" d="M56.58 36.40L56.58 40L45.80 40L45.80 36.40L48.93 36.40L48.93 19.87L45.80 19.87L45.80 16.27L56.58 16.27L56.58 19.87L53.42 19.87L53.42 36.40L56.58 36.40ZM90.92 40L85.99 40L78.85 27.83L76.40 22.90L76.30 22.90L76.30 40L72.05 40L72.05 16.27L76.98 16.27L84.12 28.44L86.57 33.37L86.67 33.37L86.67 16.27L90.92 16.27L90.92 40ZM116.01 40L107.38 40L107.38 16.27L116.01 16.27Q119.11 16.27 121.42 17.59Q123.73 18.92 124.99 21.55Q126.25 24.19 126.25 28.13L126.25 28.13Q126.25 32.08 124.99 34.71Q123.73 37.35 121.42 38.67Q119.11 40 116.01 40L116.01 40ZM111.86 20.25L111.86 36.02L116.01 36.02Q117.68 36.02 118.90 35.36Q120.13 34.70 120.81 33.35Q121.49 32.01 121.49 30.00L121.49 30.00L121.49 26.26Q121.49 24.22 120.81 22.90Q120.13 21.57 118.90 20.91Q117.68 20.25 116.01 20.25L116.01 20.25L111.86 20.25ZM151.47 36.40L151.47 40L140.70 40L140.70 36.40L143.82 36.40L143.82 19.87L140.70 19.87L140.70 16.27L151.47 16.27L151.47 19.87L148.31 19.87L148.31 36.40L151.47 36.40ZM185.95 40L182.07 40L182.07 36.33L181.94 36.33Q181.63 38.06 180.02 39.23Q178.40 40.41 175.72 40.41L175.72 40.41Q172.93 40.41 170.72 39.01Q168.51 37.62 167.22 34.90Q165.92 32.18 165.92 28.20L165.92 28.20Q165.92 24.22 167.25 21.47Q168.58 18.72 170.96 17.29Q173.34 15.86 176.50 15.86L176.50 15.86Q179.66 15.86 181.94 17.27Q184.22 18.68 185.47 21.27L185.47 21.27L181.84 23.41Q181.19 21.84 179.90 20.84Q178.61 19.84 176.50 19.84L176.50 19.84Q174.76 19.84 173.45 20.57Q172.15 21.30 171.41 22.71Q170.68 24.12 170.68 26.23L170.68 26.23L170.68 30.04Q170.68 32.11 171.41 33.54Q172.15 34.97 173.47 35.70Q174.80 36.43 176.57 36.43L176.57 36.43Q177.96 36.43 179.12 35.97Q180.27 35.51 180.95 34.61Q181.63 33.71 181.63 32.38L181.63 32.38L181.63 30.85L176.97 30.85L176.97 27.08L185.95 27.08L185.95 40ZM211.35 40.41L211.35 40.41Q208.25 40.41 205.91 39.01Q203.56 37.62 202.29 34.88Q201.01 32.15 201.01 28.13L201.01 28.13Q201.01 24.12 202.29 21.38Q203.56 18.65 205.91 17.25Q208.25 15.86 211.35 15.86L211.35 15.86Q214.48 15.86 216.80 17.25Q219.13 18.65 220.41 21.38Q221.68 24.12 221.68 28.13L221.68 28.13Q221.68 32.15 220.41 34.88Q219.13 37.62 216.80 39.01Q214.48 40.41 211.35 40.41ZM211.35 36.43L211.35 36.43Q213.08 36.43 214.32 35.65Q215.56 34.87 216.24 33.42Q216.92 31.98 216.92 29.97L216.92 29.97L216.92 26.30Q216.92 24.26 216.24 22.83Q215.56 21.40 214.32 20.62Q213.08 19.84 211.35 19.84L211.35 19.84Q209.68 19.84 208.42 20.62Q207.17 21.40 206.47 22.83Q205.77 24.26 205.77 26.30L205.77 26.30L205.77 29.97Q205.77 31.98 206.47 33.42Q207.17 34.87 208.42 35.65Q209.68 36.43 211.35 36.43Z"/>
</svg>
